HIERARCHY
ROOT Hips
{
	OFFSET 0.000000 1.471914 24.280096
	CHANNELS 6 Xposition Yposition Zposition Xrotation Yrotation Zrotation
	JOINT Spine
	{
		OFFSET 0.000000 0.900110 1.860670
		CHANNELS 6 Xposition Yposition Zposition Xrotation Yrotation Zrotation
		JOINT Spine1
		{
			OFFSET 0.000000 0.400320 2.270309
			CHANNELS 6 Xposition Yposition Zposition Xrotation Yrotation Zrotation
			JOINT Spine2
			{
				OFFSET 0.000000 0.200920 2.296560
				CHANNELS 6 Xposition Yposition Zposition Xrotation Yrotation Zrotation
				JOINT Spine3
				{
					OFFSET 0.000000 0.000000 2.305330
					CHANNELS 6 Xposition Yposition Zposition Xrotation Yrotation Zrotation
					JOINT Neck
					{
						OFFSET 0.000000 -0.864490 6.051487
						CHANNELS 6 Xposition Yposition Zposition Xrotation Yrotation Zrotation
						JOINT Head
						{
							OFFSET 0.000000 -0.550429 3.121674
							CHANNELS 6 Xposition Yposition Zposition Xrotation Yrotation Zrotation
							End Site
							{
								OFFSET 0.000000 0.000000 3.731750
							}
						}
					}
					JOINT RightShoulder
					{
						OFFSET -0.788280 -1.313800 4.256718
						CHANNELS 6 Xposition Yposition Zposition Xrotation Yrotation Zrotation
						JOINT RightArm
						{
							OFFSET -3.915130 0.000000 0.000000
							CHANNELS 6 Xposition Yposition Zposition Xrotation Yrotation Zrotation
							JOINT RightForeArm
							{
								OFFSET -6.914910 0.000000 0.000000
								CHANNELS 6 Xposition Yposition Zposition Xrotation Yrotation Zrotation
								JOINT RightHand
								{
									OFFSET -6.096219 0.000000 0.000000
									CHANNELS 6 Xposition Yposition Zposition Xrotation Yrotation Zrotation
									JOINT RightHandEnd
									{
										OFFSET -1.749950 0.000000 0.000000
										CHANNELS 6 Xposition Yposition Zposition Xrotation Yrotation Zrotation
										End Site
										{
											OFFSET -1.749950 0.000000 0.000000
										}
									}
									JOINT RightHandThumb1
									{
										OFFSET -0.699980 -1.166630 -0.466648
										CHANNELS 6 Xposition Yposition Zposition Xrotation Yrotation Zrotation
										End Site
										{
											OFFSET -1.690319 -0.452920 0.000000
										}
									}
								}
							}
						}
					}
					JOINT LeftShoulder
					{
						OFFSET 0.788280 -1.313800 4.256718
						CHANNELS 6 Xposition Yposition Zposition Xrotation Yrotation Zrotation
						JOINT LeftArm
						{
							OFFSET 3.915130 0.000000 0.000000
							CHANNELS 6 Xposition Yposition Zposition Xrotation Yrotation Zrotation
							JOINT LeftForeArm
							{
								OFFSET 6.914910 0.000000 0.000000
								CHANNELS 6 Xposition Yposition Zposition Xrotation Yrotation Zrotation
								JOINT LeftHand
								{
									OFFSET 6.096219 0.000000 0.000000
									CHANNELS 6 Xposition Yposition Zposition Xrotation Yrotation Zrotation
									JOINT LeftHandEnd
									{
										OFFSET 1.749950 0.000000 0.000000
										CHANNELS 6 Xposition Yposition Zposition Xrotation Yrotation Zrotation
										End Site
										{
											OFFSET 1.749950 0.000000 0.000000
										}
									}
									JOINT LeftHandThumb1
									{
										OFFSET 0.699980 -1.166630 -0.466648
										CHANNELS 6 Xposition Yposition Zposition Xrotation Yrotation Zrotation
										End Site
										{
											OFFSET 1.690319 -0.452920 0.000000
										}
									}
								}
							}
						}
					}
				}
			}
		}
	}
	JOINT RightUpLeg
	{
		OFFSET -2.338570 -0.252550 -0.551512
		CHANNELS 6 Xposition Yposition Zposition Xrotation Yrotation Zrotation
		JOINT RightLeg
		{
			OFFSET 0.000000 0.000000 -10.744959
			CHANNELS 6 Xposition Yposition Zposition Xrotation Yrotation Zrotation
			JOINT RightFoot
			{
				OFFSET 0.000000 -0.000001 -10.930849
				CHANNELS 6 Xposition Yposition Zposition Xrotation Yrotation Zrotation
				JOINT RightToeBase
				{
					OFFSET 0.000000 -4.087269 -1.487650
					CHANNELS 6 Xposition Yposition Zposition Xrotation Yrotation Zrotation
					End Site
					{
						OFFSET 0.000000 -1.891870 0.000000
					}
				}
			}
		}
	}
	JOINT LeftUpLeg
	{
		OFFSET 2.338570 -0.252550 -0.551512
		CHANNELS 6 Xposition Yposition Zposition Xrotation Yrotation Zrotation
		JOINT LeftLeg
		{
			OFFSET 0.000000 0.000000 -10.744959
			CHANNELS 6 Xposition Yposition Zposition Xrotation Yrotation Zrotation
			JOINT LeftFoot
			{
				OFFSET 0.000000 -0.000001 -10.930849
				CHANNELS 6 Xposition Yposition Zposition Xrotation Yrotation Zrotation
				JOINT LeftToeBase
				{
					OFFSET 0.000000 -4.087269 -1.487650
					CHANNELS 6 Xposition Yposition Zposition Xrotation Yrotation Zrotation
					End Site
					{
						OFFSET 0.000000 -1.891870 0.000000
					}
				}
			}
		}
	}
}
MOTION
Frames: 4
Frame Time: 0.041667
-0.000059 26.569525 40.303364 -13.682705 10.243215 -21.200566 0.000001 0.900099 1.860701 33.266641 -7.322608 -0.626141 -0.000003 0.400316 2.270325 -0.000005 -0.000000 -0.000002 0.000012 0.200941 2.296558 0.000001 -0.000001 -0.000001 0.000000 0.000001 2.305318 -0.000015 -0.000000 -0.993720 -0.000000 -0.864458 6.051500 -5.485599 -0.899266 -171.473962 0.000001 -0.550421 3.121685 -0.000000 -0.000001 -0.000000 -0.788278 -1.313754 4.256752 -122.787376 45.032940 -59.532216 -3.915114 -0.000001 0.000007 -0.000001 -0.000002 -0.000002 -6.914899 0.000003 0.000001 0.000009 0.000001 -26.491604 -6.096209 0.000002 0.000004 -0.000003 0.000017 0.000018 -1.749962 0.000011 -0.000004 -0.000000 -0.000003 0.000003 -0.700012 -1.166638 -0.466633 0.000000 -0.000003 -0.000002 0.788274 -1.313788 4.256732 -116.255666 -48.197438 67.808609 3.915153 -0.000005 0.000004 -0.000002 -0.000000 0.000002 6.914894 0.000018 -0.000012 0.000009 0.000008 27.578282 6.096222 0.000009 -0.000004 0.000015 -0.000026 -0.000028 1.749933 0.000014 -0.000007 0.000001 -0.000003 0.000003 0.699970 -1.166615 -0.466664 0.000005 -0.000003 -0.000004 -2.338571 -0.252544 -0.551496 25.262660 -6.643184 -0.483677 0.000002 -0.000003 -10.744970 6.157650 2.496381 -0.821769 0.000001 0.000009 -10.930860 0.000010 0.000000 0.000004 0.000008 -4.087267 -1.487647 0.000001 -0.000000 0.000004 2.338573 -0.252553 -0.551464 24.455520 -6.553783 -0.474368 -0.000002 -0.000009 -10.744938 4.914362 -0.070992 -0.654397 -0.000001 0.000011 -10.930852 0.000014 0.000000 -0.000001 0.000004 -4.087253 -1.487653 -0.000003 0.000001 -0.000001 
-0.000056 26.569534 40.303391 -13.896419 9.918566 -20.951435 0.000001 0.900095 1.860702 33.419709 -6.962443 -0.721168 -0.000003 0.400314 2.270323 -0.000004 0.000001 -0.000000 0.000011 0.200933 2.296558 0.000001 -0.000001 -0.000002 0.000001 -0.000001 2.305318 -0.000014 -0.000001 -0.785376 -0.000003 -0.864456 6.051500 -5.184217 -0.727862 -172.487152 -0.000001 -0.550417 3.121677 0.000001 -0.000000 -0.000001 -0.788279 -1.313754 4.256758 -122.728117 45.394615 -59.641355 -3.915122 -0.000001 0.000007 -0.000001 -0.000004 -0.000001 -6.914895 0.000003 0.000005 0.000007 -0.000000 -26.292958 -6.096211 0.000001 0.000001 -0.000002 0.000015 0.000021 -1.749959 0.000010 -0.000007 0.000002 0.000002 0.000002 -0.700011 -1.166639 -0.466640 -0.000001 0.000002 -0.000004 0.788270 -1.313788 4.256740 -116.511170 -49.079909 67.096022 3.915150 -0.000009 0.000008 0.000001 0.000001 0.000000 6.914897 0.000018 -0.000015 0.000008 0.000008 27.399497 6.096219 0.000012 0.000001 0.000020 -0.000026 -0.000028 1.749928 0.000015 -0.000004 -0.000004 -0.000001 0.000000 0.699976 -1.166613 -0.466668 -0.000000 -0.000003 -0.000004 -2.338570 -0.252547 -0.551508 25.131044 -6.607609 -0.552768 0.000001 -0.000002 -10.744975 6.368712 3.059272 -0.862065 0.000002 0.000014 -10.930864 0.000010 -0.000001 0.000002 0.000007 -4.087269 -1.487646 0.000004 -0.000001 -0.000002 2.338573 -0.252554 -0.551474 24.528032 -6.267402 -0.545655 -0.000002 -0.000004 -10.744938 4.889579 0.032218 -0.639273 -0.000004 0.000014 -10.930854 0.000017 0.000001 0.000000 0.000003 -4.087252 -1.487653 0.000002 0.000001 0.000000 
-0.000062 26.569548 40.303406 -14.078338 9.534013 -20.619540 0.000002 0.900093 1.860696 33.469932 -6.914735 -0.841206 -0.000004 0.400317 2.270327 -0.000004 -0.000001 -0.000002 0.000010 0.200931 2.296558 0.000001 0.000000 0.000001 0.000001 -0.000001 2.305318 -0.000015 0.000000 -0.732040 -0.000002 -0.864460 6.051497 -5.244489 0.148543 -173.124491 0.000001 -0.550415 3.121670 0.000000 0.000000 -0.000001 -0.788280 -1.313758 4.256756 -122.836758 46.158330 -59.590539 -3.915119 -0.000006 0.000007 -0.000000 -0.000003 -0.000003 -6.914896 -0.000000 0.000004 0.000011 0.000000 -26.092042 -6.096211 0.000003 0.000001 -0.000002 0.000019 0.000020 -1.749963 0.000009 -0.000011 -0.000004 0.000001 0.000001 -0.700013 -1.166641 -0.466640 -0.000001 -0.000001 -0.000004 0.788267 -1.313792 4.256734 -116.689643 -50.477188 66.868399 3.915143 -0.000009 0.000007 -0.000001 0.000000 -0.000002 6.914904 0.000020 -0.000016 0.000012 0.000007 26.645806 6.096215 0.000010 0.000004 0.000020 -0.000025 -0.000026 1.749933 0.000016 -0.000003 -0.000004 -0.000001 0.000002 0.699971 -1.166611 -0.466668 0.000005 -0.000002 -0.000003 -2.338570 -0.252550 -0.551506 25.055926 -6.402841 -0.642214 0.000002 -0.000003 -10.744974 6.264559 3.250593 -0.846593 0.000001 0.000014 -10.930861 0.000010 -0.000001 0.000004 0.000009 -4.087271 -1.487648 0.000004 0.000000 0.000003 2.338573 -0.252557 -0.551471 24.503884 -5.752422 -0.634075 -0.000001 -0.000007 -10.744933 5.220867 -0.019547 -0.652900 -0.000001 0.000008 -10.930852 0.000015 -0.000000 -0.000004 0.000003 -4.087253 -1.487654 -0.000004 -0.000000 -0.000003 
-0.000056 26.569550 40.303413 -14.284536 9.143666 -20.234497 0.000001 0.900095 1.860703 33.467189 -6.723888 -0.929341 -0.000005 0.400314 2.270327 -0.000003 -0.000000 -0.000002 0.000011 0.200936 2.296564 0.000003 0.000000 -0.000000 0.000003 -0.000004 2.305322 -0.000013 0.000002 -0.601166 0.000001 -0.864455 6.051492 -5.223634 0.707318 -173.439581 0.000001 -0.550418 3.121685 0.000000 0.000000 0.000000 -0.788278 -1.313756 4.256754 -122.739360 46.240982 -59.904017 -3.915112 -0.000006 0.000004 -0.000001 -0.000003 -0.000002 -6.914895 -0.000001 0.000000 0.000008 0.000001 -25.946019 -6.096206 0.000004 0.000005 -0.000002 0.000020 0.000019 -1.749961 0.000009 -0.000008 -0.000000 0.000001 0.000001 -0.700006 -1.166638 -0.466641 -0.000003 0.000001 -0.000003 0.788272 -1.313789 4.256732 -116.970869 -50.770821 66.641056 3.915152 -0.000007 0.000008 0.000001 0.000000 0.000000 6.914896 0.000019 -0.000012 0.000011 0.000007 26.181206 6.096218 0.000010 -0.000004 0.000020 -0.000024 -0.000028 1.749923 0.000017 -0.000003 0.000004 -0.000001 -0.000001 0.699968 -1.166611 -0.466672 0.000008 -0.000000 -0.000007 -2.338570 -0.252548 -0.551500 25.156847 -6.264377 -0.712464 0.000004 0.000001 -10.744975 6.113040 3.528798 -0.826280 0.000000 0.000014 -10.930866 0.000012 -0.000000 0.000003 0.000007 -4.087267 -1.487649 0.000002 0.000001 0.000004 2.338572 -0.252558 -0.551462 24.358331 -5.466490 -0.696373 -0.000001 -0.000007 -10.744930 5.617358 0.283902 -0.688019 -0.000002 0.000014 -10.930850 0.000014 -0.000000 0.000000 0.000003 -4.087251 -1.487652 -0.000001 -0.000001 -0.000003 
